<?xml version="1.0" encoding="UTF-8" standalone="no"?>
<!DOCTYPE svg PUBLIC "-//W3C//DTD SVG 1.1//EN"
 "http://www.w3.org/Graphics/SVG/1.1/DTD/svg11.dtd">
<!-- Generated by graphviz version 2.40.1 (20161225.0304)
 -->
<!-- Title: G Pages: 1 -->
<svg width="797pt" height="436pt"
 viewBox="0.00 0.00 797.00 436.00" xmlns="http://www.w3.org/2000/svg" xmlns:xlink="http://www.w3.org/1999/xlink">
<g id="graph0" class="graph" transform="scale(1 1) rotate(0) translate(4 432)">
<title>G</title>
<polygon fill="#ffffff" stroke="transparent" points="-4,4 -4,-432 793,-432 793,4 -4,4"/>
<g id="clust1" class="cluster">
<title>cluster_G</title>
<path fill="#808080" fill-opacity="0.094118" stroke="#000000" d="M20,-8C20,-8 769,-8 769,-8 775,-8 781,-14 781,-20 781,-20 781,-408 781,-408 781,-414 775,-420 769,-420 769,-420 20,-420 20,-420 14,-420 8,-414 8,-408 8,-408 8,-20 8,-20 8,-14 14,-8 20,-8"/>
</g>
<!-- nodeTone -->
<g id="node1" class="node">
<title>nodeTone</title>
<ellipse fill="none" stroke="#000000" cx="648" cy="-394" rx="46.2923" ry="18"/>
<text text-anchor="middle" x="648" y="-390.3" font-family="Times,serif" font-size="14.00" fill="#000000">nodeTone</text>
</g>
<!-- etmxclassxorchestrationxv3 -->
<g id="node2" class="node">
<title>etmxclassxorchestrationxv3</title>
<ellipse fill="#ffffff" fill-opacity="0.698039" stroke="#000000" cx="397" cy="-394" rx="109.381" ry="18"/>
<text text-anchor="middle" x="397" y="-390.3" font-family="Times,serif" font-size="14.00" fill="#000000">etmxclassxorchestrationxv3</text>
</g>
<!-- etmxclassxorchestrationxv3__Etm -->
<g id="node3" class="node">
<title>etmxclassxorchestrationxv3__Etm</title>
<ellipse fill="#ffffff" fill-opacity="0.698039" stroke="#000000" cx="268" cy="-322" rx="27" ry="18"/>
<text text-anchor="middle" x="268" y="-318.3" font-family="Times,serif" font-size="14.00" fill="#000000">Etm</text>
</g>
<!-- etmxclassxorchestrationxv3&#45;&gt;etmxclassxorchestrationxv3__Etm -->
<g id="edge1" class="edge">
<title>etmxclassxorchestrationxv3&#45;&gt;etmxclassxorchestrationxv3__Etm</title>
<path fill="none" stroke="#838b8b" stroke-dasharray="5,2" d="M360.5889,-376.937C339.8359,-366.0015 314.3532,-351.807 295.3075,-340.586"/>
<polygon fill="#838b8b" stroke="#838b8b" points="296.9045,-337.4632 286.5238,-335.3437 293.317,-343.474 296.9045,-337.4632"/>
</g>
<!-- etmxclassxorchestrationxv3&#45;&gt;etmxclassxorchestrationxv3__Etm -->
<g id="edge14" class="edge">
<title>etmxclassxorchestrationxv3&#45;&gt;etmxclassxorchestrationxv3__Etm</title>
<path fill="none" stroke="#000000" d="M371.3401,-376.3868C350.6556,-364.1471 321.6631,-348.0311 299.5692,-336.5263"/>
<polygon fill="#000000" stroke="#000000" points="301.0615,-333.3581 290.5671,-331.9027 297.8634,-339.5848 301.0615,-333.3581"/>
</g>
<!-- etmxclassxorchestrationxv3___return_mem_stat -->
<g id="node4" class="node">
<title>etmxclassxorchestrationxv3___return_mem_stat</title>
<ellipse fill="#ffffff" fill-opacity="0.698039" stroke="#000000" cx="597" cy="-34" rx="75.2868" ry="18"/>
<text text-anchor="middle" x="597" y="-30.3" font-family="Times,serif" font-size="14.00" fill="#000000">_return_mem_stat</text>
</g>
<!-- etmxclassxorchestrationxv3&#45;&gt;etmxclassxorchestrationxv3___return_mem_stat -->
<g id="edge4" class="edge">
<title>etmxclassxorchestrationxv3&#45;&gt;etmxclassxorchestrationxv3___return_mem_stat</title>
<path fill="none" stroke="#838b8b" stroke-dasharray="5,2" d="M472.4357,-380.8553C581.9419,-359.5979 772,-313.5498 772,-250 772,-250 772,-250 772,-178 772,-137.7538 787.3873,-119.2288 762,-88 749.1339,-72.1734 703.7547,-57.9882 663.8362,-48.1324"/>
<polygon fill="#838b8b" stroke="#838b8b" points="664.6365,-44.7251 654.0947,-45.7843 662.9961,-51.5302 664.6365,-44.7251"/>
</g>
<!-- etmxclassxorchestrationxv3__return_available_memory -->
<g id="node5" class="node">
<title>etmxclassxorchestrationxv3__return_available_memory</title>
<ellipse fill="#ffffff" fill-opacity="0.698039" stroke="#000000" cx="496" cy="-106" rx="102.8821" ry="18"/>
<text text-anchor="middle" x="496" y="-102.3" font-family="Times,serif" font-size="14.00" fill="#000000">return_available_memory</text>
</g>
<!-- etmxclassxorchestrationxv3&#45;&gt;etmxclassxorchestrationxv3__return_available_memory -->
<g id="edge3" class="edge">
<title>etmxclassxorchestrationxv3&#45;&gt;etmxclassxorchestrationxv3__return_available_memory</title>
<path fill="none" stroke="#838b8b" stroke-dasharray="5,2" d="M414.8926,-375.8399C436.1962,-352.907 470.8003,-311.2008 486,-268 501.7126,-223.3414 501.1085,-167.5259 498.8369,-134.4322"/>
<polygon fill="#838b8b" stroke="#838b8b" points="502.2998,-133.8227 498.0237,-124.1292 495.3215,-134.3736 502.2998,-133.8227"/>
</g>
<!-- etmxclassxorchestrationxv3__return_cpu_load -->
<g id="node6" class="node">
<title>etmxclassxorchestrationxv3__return_cpu_load</title>
<ellipse fill="#ffffff" fill-opacity="0.698039" stroke="#000000" cx="685" cy="-106" rx="68.4888" ry="18"/>
<text text-anchor="middle" x="685" y="-102.3" font-family="Times,serif" font-size="14.00" fill="#000000">return_cpu_load</text>
</g>
<!-- etmxclassxorchestrationxv3&#45;&gt;etmxclassxorchestrationxv3__return_cpu_load -->
<g id="edge2" class="edge">
<title>etmxclassxorchestrationxv3&#45;&gt;etmxclassxorchestrationxv3__return_cpu_load</title>
<path fill="none" stroke="#838b8b" stroke-dasharray="5,2" d="M419.5088,-376.3722C432.2807,-366.1079 448.3842,-352.7186 462,-340 539.2136,-267.8741 623.4756,-175.266 662.6516,-131.3183"/>
<polygon fill="#838b8b" stroke="#838b8b" points="665.4011,-133.4934 669.4301,-123.6945 660.1698,-128.8422 665.4011,-133.4934"/>
</g>
<!-- etmxclassxorchestrationxv3__Etm__MAIN_etm_runner -->
<g id="node7" class="node">
<title>etmxclassxorchestrationxv3__Etm__MAIN_etm_runner</title>
<ellipse fill="#ffffff" fill-opacity="0.698039" stroke="#000000" cx="397" cy="-250" rx="79.8859" ry="18"/>
<text text-anchor="middle" x="397" y="-246.3" font-family="Times,serif" font-size="14.00" fill="#000000">MAIN_etm_runner</text>
</g>
<!-- etmxclassxorchestrationxv3&#45;&gt;etmxclassxorchestrationxv3__Etm__MAIN_etm_runner -->
<g id="edge13" class="edge">
<title>etmxclassxorchestrationxv3&#45;&gt;etmxclassxorchestrationxv3__Etm__MAIN_etm_runner</title>
<path fill="none" stroke="#000000" d="M397,-375.7623C397,-351.201 397,-307.2474 397,-278.3541"/>
<polygon fill="#000000" stroke="#000000" points="400.5001,-278.0896 397,-268.0896 393.5001,-278.0897 400.5001,-278.0896"/>
</g>
<!-- etmxclassxorchestrationxv3__Etm____init__ -->
<g id="node8" class="node">
<title>etmxclassxorchestrationxv3__Etm____init__</title>
<ellipse fill="#ffffff" fill-opacity="0.698039" stroke="#000000" cx="56" cy="-250" rx="40.0939" ry="18"/>
<text text-anchor="middle" x="56" y="-246.3" font-family="Times,serif" font-size="14.00" fill="#000000">__init__</text>
</g>
<!-- etmxclassxorchestrationxv3&#45;&gt;etmxclassxorchestrationxv3__Etm____init__ -->
<g id="edge15" class="edge">
<title>etmxclassxorchestrationxv3&#45;&gt;etmxclassxorchestrationxv3__Etm____init__</title>
<path fill="none" stroke="#000000" d="M341.9693,-378.3498C309.512,-368.5388 267.8953,-354.9438 232,-340 180.9578,-318.7503 124.4568,-288.6031 89.5819,-269.1725"/>
<polygon fill="#000000" stroke="#000000" points="91.2045,-266.0697 80.7698,-264.2342 87.7823,-272.1762 91.2045,-266.0697"/>
</g>
<!-- etmxclassxorchestrationxv3__Etm&#45;&gt;etmxclassxorchestrationxv3__Etm__MAIN_etm_runner -->
<g id="edge8" class="edge">
<title>etmxclassxorchestrationxv3__Etm&#45;&gt;etmxclassxorchestrationxv3__Etm__MAIN_etm_runner</title>
<path fill="none" stroke="#838b8b" stroke-dasharray="5,2" d="M288.7261,-310.432C307.3371,-300.0444 335.1545,-284.5184 357.9329,-271.8049"/>
<polygon fill="#838b8b" stroke="#838b8b" points="359.6781,-274.8391 366.7043,-266.9092 356.2665,-268.7267 359.6781,-274.8391"/>
</g>
<!-- etmxclassxorchestrationxv3__Etm&#45;&gt;etmxclassxorchestrationxv3__Etm____init__ -->
<g id="edge9" class="edge">
<title>etmxclassxorchestrationxv3__Etm&#45;&gt;etmxclassxorchestrationxv3__Etm____init__</title>
<path fill="none" stroke="#838b8b" stroke-dasharray="5,2" d="M243.5124,-314.0385C211.7346,-303.6608 154.5998,-284.8453 106,-268 103.0866,-266.9902 100.0816,-265.9372 97.0588,-264.8696"/>
<polygon fill="#838b8b" stroke="#838b8b" points="98.0274,-261.4994 87.4328,-261.4447 95.6809,-268.0944 98.0274,-261.4994"/>
</g>
<!-- etmxclassxorchestrationxv3__Etm____repr__ -->
<g id="node9" class="node">
<title>etmxclassxorchestrationxv3__Etm____repr__</title>
<ellipse fill="#ffffff" fill-opacity="0.698039" stroke="#000000" cx="157" cy="-250" rx="42.4939" ry="18"/>
<text text-anchor="middle" x="157" y="-246.3" font-family="Times,serif" font-size="14.00" fill="#000000">__repr__</text>
</g>
<!-- etmxclassxorchestrationxv3__Etm&#45;&gt;etmxclassxorchestrationxv3__Etm____repr__ -->
<g id="edge11" class="edge">
<title>etmxclassxorchestrationxv3__Etm&#45;&gt;etmxclassxorchestrationxv3__Etm____repr__</title>
<path fill="none" stroke="#838b8b" stroke-dasharray="5,2" d="M248.4109,-309.2936C231.8955,-298.5809 207.945,-283.0454 188.7027,-270.5639"/>
<polygon fill="#838b8b" stroke="#838b8b" points="190.5308,-267.5779 180.2365,-265.0723 186.7214,-273.4506 190.5308,-267.5779"/>
</g>
<!-- etmxclassxorchestrationxv3__Etm___event_loop -->
<g id="node10" class="node">
<title>etmxclassxorchestrationxv3__Etm___event_loop</title>
<ellipse fill="#ffffff" fill-opacity="0.698039" stroke="#000000" cx="374" cy="-178" rx="53.8905" ry="18"/>
<text text-anchor="middle" x="374" y="-174.3" font-family="Times,serif" font-size="14.00" fill="#000000">_event_loop</text>
</g>
<!-- etmxclassxorchestrationxv3__Etm&#45;&gt;etmxclassxorchestrationxv3__Etm___event_loop -->
<g id="edge12" class="edge">
<title>etmxclassxorchestrationxv3__Etm&#45;&gt;etmxclassxorchestrationxv3__Etm___event_loop</title>
<path fill="none" stroke="#838b8b" stroke-dasharray="5,2" d="M273.1955,-304.1223C279.36,-284.9611 290.9927,-254.2957 308,-232 317.104,-220.0652 329.3494,-209.1136 340.8198,-200.2385"/>
<polygon fill="#838b8b" stroke="#838b8b" points="343.0517,-202.9403 348.9791,-194.1587 338.8691,-197.3272 343.0517,-202.9403"/>
</g>
<!-- etmxclassxorchestrationxv3__Etm___read_yml -->
<g id="node11" class="node">
<title>etmxclassxorchestrationxv3__Etm___read_yml</title>
<ellipse fill="#ffffff" fill-opacity="0.698039" stroke="#000000" cx="92" cy="-178" rx="48.9926" ry="18"/>
<text text-anchor="middle" x="92" y="-174.3" font-family="Times,serif" font-size="14.00" fill="#000000">_read_yml</text>
</g>
<!-- etmxclassxorchestrationxv3__Etm&#45;&gt;etmxclassxorchestrationxv3__Etm___read_yml -->
<g id="edge7" class="edge">
<title>etmxclassxorchestrationxv3__Etm&#45;&gt;etmxclassxorchestrationxv3__Etm___read_yml</title>
<path fill="none" stroke="#838b8b" stroke-dasharray="5,2" d="M257.2092,-305.3146C240.8398,-280.0764 211.2776,-234.8129 208,-232 188.0135,-214.8475 161.6586,-202.0002 139.1212,-193.1494"/>
<polygon fill="#838b8b" stroke="#838b8b" points="140.3173,-189.8599 129.7257,-189.6 137.8435,-196.4082 140.3173,-189.8599"/>
</g>
<!-- etmxclassxorchestrationxv3__Etm___return_num_containers -->
<g id="node12" class="node">
<title>etmxclassxorchestrationxv3__Etm___return_num_containers</title>
<ellipse fill="#ffffff" fill-opacity="0.698039" stroke="#000000" cx="164" cy="-106" rx="96.6831" ry="18"/>
<text text-anchor="middle" x="164" y="-102.3" font-family="Times,serif" font-size="14.00" fill="#000000">_return_num_containers</text>
</g>
<!-- etmxclassxorchestrationxv3__Etm&#45;&gt;etmxclassxorchestrationxv3__Etm___return_num_containers -->
<g id="edge6" class="edge">
<title>etmxclassxorchestrationxv3__Etm&#45;&gt;etmxclassxorchestrationxv3__Etm___return_num_containers</title>
<path fill="none" stroke="#838b8b" stroke-dasharray="5,2" d="M265.3621,-303.715C260.1798,-272.2981 246.5062,-206.9279 217,-160 210.4023,-149.5067 201.4677,-139.4125 192.8154,-130.8487"/>
<polygon fill="#838b8b" stroke="#838b8b" points="195.0074,-128.1032 185.3503,-123.7455 190.1821,-133.1744 195.0074,-128.1032"/>
</g>
<!-- etmxclassxorchestrationxv3__Etm___start_container -->
<g id="node13" class="node">
<title>etmxclassxorchestrationxv3__Etm___start_container</title>
<ellipse fill="#ffffff" fill-opacity="0.698039" stroke="#000000" cx="206" cy="-34" rx="67.6881" ry="18"/>
<text text-anchor="middle" x="206" y="-30.3" font-family="Times,serif" font-size="14.00" fill="#000000">_start_container</text>
</g>
<!-- etmxclassxorchestrationxv3__Etm&#45;&gt;etmxclassxorchestrationxv3__Etm___start_container -->
<g id="edge5" class="edge">
<title>etmxclassxorchestrationxv3__Etm&#45;&gt;etmxclassxorchestrationxv3__Etm___start_container</title>
<path fill="none" stroke="#838b8b" stroke-dasharray="5,2" d="M260.0876,-304.5833C248.9685,-280.2448 229.5642,-238.316 225,-232 197.9359,-194.5481 188.9271,-184.8956 150,-160 113.01,-136.3432 82.7525,-160.2659 58,-124 48.9802,-110.7847 48.828,-101.1101 58,-88 68.5697,-72.8922 109.0566,-58.7198 145.0168,-48.688"/>
<polygon fill="#838b8b" stroke="#838b8b" points="146.2793,-51.9719 155.0108,-45.9709 144.4428,-45.217 146.2793,-51.9719"/>
</g>
<!-- etmxclassxorchestrationxv3__Etm___start_etm -->
<g id="node14" class="node">
<title>etmxclassxorchestrationxv3__Etm___start_etm</title>
<ellipse fill="#ffffff" fill-opacity="0.698039" stroke="#000000" cx="327" cy="-106" rx="48.1917" ry="18"/>
<text text-anchor="middle" x="327" y="-102.3" font-family="Times,serif" font-size="14.00" fill="#000000">_start_etm</text>
</g>
<!-- etmxclassxorchestrationxv3__Etm&#45;&gt;etmxclassxorchestrationxv3__Etm___start_etm -->
<g id="edge10" class="edge">
<title>etmxclassxorchestrationxv3__Etm&#45;&gt;etmxclassxorchestrationxv3__Etm___start_etm</title>
<path fill="none" stroke="#838b8b" stroke-dasharray="5,2" d="M270.095,-303.8819C272.4275,-285.5713 276.7159,-256.5534 283,-232 291.8755,-197.3213 306.0631,-158.6103 315.9188,-133.3636"/>
<polygon fill="#838b8b" stroke="#838b8b" points="319.1742,-134.6489 319.5921,-124.0623 312.6636,-132.0777 319.1742,-134.6489"/>
</g>
<!-- etmxclassxorchestrationxv3__return_available_memory&#45;&gt;etmxclassxorchestrationxv3___return_mem_stat -->
<g id="edge16" class="edge">
<title>etmxclassxorchestrationxv3__return_available_memory&#45;&gt;etmxclassxorchestrationxv3___return_mem_stat</title>
<path fill="none" stroke="#000000" d="M520.7074,-88.3868C533.862,-79.0092 550.2084,-67.3564 564.3922,-57.2452"/>
<polygon fill="#000000" stroke="#000000" points="566.7851,-59.8377 572.8962,-51.1829 562.7218,-54.1377 566.7851,-59.8377"/>
</g>
<!-- etmxclassxorchestrationxv3__Etm__MAIN_etm_runner&#45;&gt;etmxclassxorchestrationxv3__Etm___event_loop -->
<g id="edge18" class="edge">
<title>etmxclassxorchestrationxv3__Etm__MAIN_etm_runner&#45;&gt;etmxclassxorchestrationxv3__Etm___event_loop</title>
<path fill="none" stroke="#000000" d="M391.1961,-231.8314C388.6435,-223.8406 385.59,-214.2819 382.7692,-205.4514"/>
<polygon fill="#000000" stroke="#000000" points="386.0994,-204.3741 379.7223,-195.9134 379.4313,-206.5043 386.0994,-204.3741"/>
</g>
<!-- etmxclassxorchestrationxv3__Etm____init__&#45;&gt;etmxclassxorchestrationxv3__Etm___read_yml -->
<g id="edge17" class="edge">
<title>etmxclassxorchestrationxv3__Etm____init__&#45;&gt;etmxclassxorchestrationxv3__Etm___read_yml</title>
<path fill="none" stroke="#000000" d="M64.8989,-232.2022C69.0095,-223.981 73.9795,-214.041 78.5349,-204.9301"/>
<polygon fill="#000000" stroke="#000000" points="81.737,-206.3521 83.0787,-195.8425 75.476,-203.2216 81.737,-206.3521"/>
</g>
<!-- etmxclassxorchestrationxv3__Etm___event_loop&#45;&gt;etmxclassxorchestrationxv3__return_available_memory -->
<g id="edge21" class="edge">
<title>etmxclassxorchestrationxv3__Etm___event_loop&#45;&gt;etmxclassxorchestrationxv3__return_available_memory</title>
<path fill="none" stroke="#000000" d="M400.7734,-162.1993C417.5308,-152.3097 439.3832,-139.4132 457.9274,-128.4691"/>
<polygon fill="#000000" stroke="#000000" points="459.8951,-131.3719 466.7283,-123.2751 456.3373,-125.3435 459.8951,-131.3719"/>
</g>
<!-- etmxclassxorchestrationxv3__Etm___event_loop&#45;&gt;etmxclassxorchestrationxv3__return_cpu_load -->
<g id="edge23" class="edge">
<title>etmxclassxorchestrationxv3__Etm___event_loop&#45;&gt;etmxclassxorchestrationxv3__return_cpu_load</title>
<path fill="none" stroke="#000000" d="M418.4327,-167.7859C465.5085,-156.9549 542.0061,-139.3282 608,-124 613.0523,-122.8265 618.2904,-121.6074 623.5495,-120.3816"/>
<polygon fill="#000000" stroke="#000000" points="624.7022,-123.7067 633.6456,-118.0263 623.1119,-116.8897 624.7022,-123.7067"/>
</g>
<!-- etmxclassxorchestrationxv3__Etm___event_loop&#45;&gt;etmxclassxorchestrationxv3__Etm___return_num_containers -->
<g id="edge20" class="edge">
<title>etmxclassxorchestrationxv3__Etm___event_loop&#45;&gt;etmxclassxorchestrationxv3__Etm___return_num_containers</title>
<path fill="none" stroke="#000000" d="M335.9706,-164.9613C303.5291,-153.8385 256.4489,-137.6968 219.7481,-125.1136"/>
<polygon fill="#000000" stroke="#000000" points="220.7703,-121.7642 210.1757,-121.8317 218.5,-128.3858 220.7703,-121.7642"/>
</g>
<!-- etmxclassxorchestrationxv3__Etm___event_loop&#45;&gt;etmxclassxorchestrationxv3__Etm___start_etm -->
<g id="edge22" class="edge">
<title>etmxclassxorchestrationxv3__Etm___event_loop&#45;&gt;etmxclassxorchestrationxv3__Etm___start_etm</title>
<path fill="none" stroke="#000000" d="M362.382,-160.2022C356.8612,-151.7448 350.153,-141.4685 344.0682,-132.147"/>
<polygon fill="#000000" stroke="#000000" points="346.8814,-130.0536 338.4843,-123.593 341.0198,-133.88 346.8814,-130.0536"/>
</g>
<!-- etmxclassxorchestrationxv3__Etm___start_etm&#45;&gt;etmxclassxorchestrationxv3__Etm___start_container -->
<g id="edge19" class="edge">
<title>etmxclassxorchestrationxv3__Etm___start_etm&#45;&gt;etmxclassxorchestrationxv3__Etm___start_container</title>
<path fill="none" stroke="#000000" d="M301.339,-90.7307C284.2112,-80.5389 261.4321,-66.9844 242.4351,-55.6804"/>
<polygon fill="#000000" stroke="#000000" points="244.1148,-52.6072 233.7314,-50.5013 240.5353,-58.6227 244.1148,-52.6072"/>
</g>
</g>
</svg>
